<mxfile host="app.diagrams.net" modified="2024-05-12T16:33:06.302Z" agent="Mozilla/5.0 (Windows NT 10.0; Win64; x64) AppleWebKit/537.36 (KHTML, like Gecko) Chrome/124.0.0.0 Safari/537.36" etag="7cFH4jODw6Ri5d3pw_QA" version="24.4.0" type="github">
  <diagram name="Halaman-1" id="_axqNYBH5Vn2pAP-PIyP">
    <mxGraphModel dx="1034" dy="1628" grid="1" gridSize="10" guides="1" tooltips="1" connect="1" arrows="1" fold="1" page="1" pageScale="1" pageWidth="827" pageHeight="1169" math="0" shadow="0">
      <root>
        <mxCell id="0" />
        <mxCell id="1" parent="0" />
        <mxCell id="rrvURT6HxI1qHbSuCArZ-8" value="" style="endArrow=none;html=1;rounded=0;entryX=0.5;entryY=1;entryDx=0;entryDy=0;" parent="1" source="rrvURT6HxI1qHbSuCArZ-6" target="rrvURT6HxI1qHbSuCArZ-4" edge="1">
          <mxGeometry width="50" height="50" relative="1" as="geometry">
            <mxPoint x="380" y="50" as="sourcePoint" />
            <mxPoint x="430" as="targetPoint" />
            <Array as="points" />
          </mxGeometry>
        </mxCell>
        <mxCell id="rrvURT6HxI1qHbSuCArZ-2" value="&amp;nbsp;input(masukkan bilangan&amp;nbsp;&lt;div&gt;keren? )&lt;/div&gt;" style="shape=parallelogram;perimeter=parallelogramPerimeter;whiteSpace=wrap;html=1;fixedSize=1;" parent="1" vertex="1">
          <mxGeometry x="240" y="-40" width="180" height="60" as="geometry" />
        </mxCell>
        <mxCell id="rrvURT6HxI1qHbSuCArZ-4" value="Mulai" style="rounded=1;whiteSpace=wrap;html=1;" parent="1" vertex="1">
          <mxGeometry x="270" y="-120" width="120" height="60" as="geometry" />
        </mxCell>
        <mxCell id="rrvURT6HxI1qHbSuCArZ-5" value="Proses" style="rounded=0;whiteSpace=wrap;html=1;" parent="1" vertex="1">
          <mxGeometry x="270" y="40" width="110" height="60" as="geometry" />
        </mxCell>
        <mxCell id="rrvURT6HxI1qHbSuCArZ-6" value="if bil_keren modulo 2&amp;nbsp;&lt;div&gt;sama dengan 0 dan bil-keren bukan sama dengan 1&amp;nbsp;&lt;/div&gt;" style="rhombus;whiteSpace=wrap;html=1;align=center;" parent="1" vertex="1">
          <mxGeometry x="235" y="120" width="190" height="170" as="geometry" />
        </mxCell>
        <mxCell id="rrvURT6HxI1qHbSuCArZ-10" value="True" style="shape=parallelogram;perimeter=parallelogramPerimeter;whiteSpace=wrap;html=1;fixedSize=1;" parent="1" vertex="1">
          <mxGeometry x="270" y="330" width="120" height="60" as="geometry" />
        </mxCell>
        <mxCell id="rrvURT6HxI1qHbSuCArZ-11" value="False" style="shape=parallelogram;perimeter=parallelogramPerimeter;whiteSpace=wrap;html=1;fixedSize=1;" parent="1" vertex="1">
          <mxGeometry x="480" y="170" width="120" height="60" as="geometry" />
        </mxCell>
        <mxCell id="rrvURT6HxI1qHbSuCArZ-12" value="" style="endArrow=none;html=1;rounded=0;" parent="1" source="rrvURT6HxI1qHbSuCArZ-6" target="rrvURT6HxI1qHbSuCArZ-11" edge="1">
          <mxGeometry width="50" height="50" relative="1" as="geometry">
            <mxPoint x="380" y="230" as="sourcePoint" />
            <mxPoint x="430" y="180" as="targetPoint" />
          </mxGeometry>
        </mxCell>
        <mxCell id="rrvURT6HxI1qHbSuCArZ-14" value="yes" style="edgeLabel;html=1;align=center;verticalAlign=middle;resizable=0;points=[];" parent="rrvURT6HxI1qHbSuCArZ-12" vertex="1" connectable="0">
          <mxGeometry x="-0.0023" relative="1" as="geometry">
            <mxPoint as="offset" />
          </mxGeometry>
        </mxCell>
        <mxCell id="rrvURT6HxI1qHbSuCArZ-13" value="" style="endArrow=none;html=1;rounded=0;" parent="1" source="rrvURT6HxI1qHbSuCArZ-10" target="rrvURT6HxI1qHbSuCArZ-6" edge="1">
          <mxGeometry width="50" height="50" relative="1" as="geometry">
            <mxPoint x="380" y="230" as="sourcePoint" />
            <mxPoint x="430" y="180" as="targetPoint" />
          </mxGeometry>
        </mxCell>
        <mxCell id="rrvURT6HxI1qHbSuCArZ-15" value="No" style="edgeLabel;html=1;align=center;verticalAlign=middle;resizable=0;points=[];" parent="rrvURT6HxI1qHbSuCArZ-13" vertex="1" connectable="0">
          <mxGeometry x="0.1333" y="1" relative="1" as="geometry">
            <mxPoint as="offset" />
          </mxGeometry>
        </mxCell>
        <mxCell id="rrvURT6HxI1qHbSuCArZ-16" value="Selesai" style="rounded=1;whiteSpace=wrap;html=1;" parent="1" vertex="1">
          <mxGeometry x="270" y="430" width="120" height="60" as="geometry" />
        </mxCell>
        <mxCell id="rrvURT6HxI1qHbSuCArZ-17" value="" style="endArrow=classic;html=1;rounded=0;exitX=0.5;exitY=1;exitDx=0;exitDy=0;entryX=1;entryY=0.5;entryDx=0;entryDy=0;" parent="1" source="rrvURT6HxI1qHbSuCArZ-11" target="rrvURT6HxI1qHbSuCArZ-16" edge="1">
          <mxGeometry width="50" height="50" relative="1" as="geometry">
            <mxPoint x="380" y="320" as="sourcePoint" />
            <mxPoint x="430" y="270" as="targetPoint" />
            <Array as="points">
              <mxPoint x="540" y="460" />
              <mxPoint x="460" y="460" />
            </Array>
          </mxGeometry>
        </mxCell>
        <mxCell id="rrvURT6HxI1qHbSuCArZ-18" value="" style="endArrow=none;html=1;rounded=0;exitX=0.5;exitY=0;exitDx=0;exitDy=0;entryX=0.5;entryY=1;entryDx=0;entryDy=0;" parent="1" source="rrvURT6HxI1qHbSuCArZ-16" target="rrvURT6HxI1qHbSuCArZ-10" edge="1">
          <mxGeometry width="50" height="50" relative="1" as="geometry">
            <mxPoint x="370" y="350" as="sourcePoint" />
            <mxPoint x="420" y="300" as="targetPoint" />
          </mxGeometry>
        </mxCell>
      </root>
    </mxGraphModel>
  </diagram>
</mxfile>
